<?xml version="1.0" encoding="UTF-8"?>
<svg xmlns="http://www.w3.org/2000/svg" xmlns:xlink="http://www.w3.org/1999/xlink" width="1211.9pt" height="390.55pt" viewBox="0 0 1211.9 390.55" version="1.1">
<defs>
<clipPath id="clip1">
  <path d="M 982 112 L 1211.898438 112 L 1211.898438 306 L 982 306 Z M 982 112 "/>
</clipPath>
<clipPath id="clip2">
  <path d="M 756 331 L 788 331 L 788 390.550781 L 756 390.550781 Z M 756 331 "/>
</clipPath>
<clipPath id="clip3">
  <path d="M 1181 342 L 1211.898438 342 L 1211.898438 376 L 1181 376 Z M 1181 342 "/>
</clipPath>
</defs>
<g id="surface1">
<path style=" stroke:none;fill-rule:nonzero;fill:rgb(13.33313%,18.03894%,39.607239%);fill-opacity:1;" d="M 451.890625 149.917969 C 465.613281 154.664063 473.527344 155.191406 489.367188 155.191406 C 534.226563 155.191406 562.726563 130.917969 562.726563 89.75 C 562.726563 57.550781 544.785156 14.273438 489.367188 14.273438 L 451.890625 14.273438 Z M 451.890625 248.085938 C 451.890625 285.558594 460.859375 296.109375 486.199219 296.109375 L 486.199219 305.089844 L 377.472656 305.089844 L 377.472656 296.109375 C 398.582031 296.109375 411.777344 289.253906 411.777344 249.136719 L 411.777344 59.664063 C 411.777344 22.71875 402.804688 11.636719 377.472656 11.636719 L 377.472656 2.660156 L 487.777344 2.660156 C 571.171875 2.660156 604.945313 46.996094 604.945313 88.691406 C 604.945313 138.835938 566.949219 166.808594 498.335938 166.808594 C 485.140625 166.808594 474.0625 166.277344 451.890625 163.640625 "/>
<path style=" stroke:none;fill-rule:nonzero;fill:rgb(13.33313%,18.03894%,39.607239%);fill-opacity:1;" d="M 713.667969 182.109375 C 715.257813 140.941406 687.285156 124.054688 663.53125 124.054688 C 632.398438 124.054688 613.921875 147.277344 611.804688 182.109375 Z M 611.804688 191.085938 C 610.753906 275.003906 660.890625 296.109375 686.230469 296.109375 C 712.09375 296.109375 725.285156 287.144531 752.210938 257.050781 L 752.210938 270.777344 C 729.515625 299.808594 707.867188 310.890625 675.148438 310.890625 C 616.558594 310.890625 574.339844 270.253906 574.339844 213.777344 C 574.339844 157.304688 615.507813 112.972656 668.277344 112.972656 C 711.566406 112.972656 751.683594 147.804688 749.042969 191.085938 "/>
<path style=" stroke:none;fill-rule:nonzero;fill:rgb(13.33313%,18.03894%,39.607239%);fill-opacity:1;" d="M 951.699219 264.445313 C 951.699219 288.722656 956.988281 296.109375 983.371094 296.109375 L 983.371094 305.089844 L 883.617188 305.089844 L 883.617188 296.109375 C 908.945313 296.109375 915.808594 290.3125 915.808594 272.890625 L 915.808594 175.246094 C 915.808594 145.164063 894.167969 132.503906 874.117188 132.503906 C 855.648438 132.503906 839.285156 144.109375 820.8125 168.914063 L 820.8125 260.226563 C 820.8125 288.722656 824.507813 296.109375 852.480469 296.109375 L 852.480469 305.089844 L 753.78125 305.089844 L 753.78125 296.109375 C 778.59375 296.109375 784.925781 294.003906 784.925781 260.226563 L 784.925781 155.191406 C 784.925781 132.503906 779.113281 127.75 753.78125 127.75 L 753.78125 118.777344 L 811.835938 112.972656 L 820.8125 112.972656 L 820.8125 150.445313 C 842.976563 125.113281 864.621094 112.972656 888.371094 112.972656 C 919.515625 112.972656 951.699219 135.140625 951.699219 180 "/>
<g clip-path="url(#clip1)" clip-rule="nonzero">
<path style=" stroke:none;fill-rule:nonzero;fill:rgb(13.33313%,18.03894%,39.607239%);fill-opacity:1;" d="M 1180.230469 264.445313 C 1180.230469 288.722656 1185.511719 296.109375 1211.898438 296.109375 L 1211.898438 305.089844 L 1112.148438 305.089844 L 1112.148438 296.109375 C 1137.488281 296.109375 1144.339844 290.3125 1144.339844 272.890625 L 1144.339844 175.246094 C 1144.339844 145.164063 1122.710938 132.503906 1102.648438 132.503906 C 1084.171875 132.503906 1067.820313 144.109375 1049.328125 168.914063 L 1049.328125 260.226563 C 1049.328125 288.722656 1053.039063 296.109375 1081.011719 296.109375 L 1081.011719 305.089844 L 982.304688 305.089844 L 982.304688 296.109375 C 1007.109375 296.109375 1013.449219 294.003906 1013.449219 260.226563 L 1013.449219 155.191406 C 1013.449219 132.503906 1007.648438 127.75 982.304688 127.75 L 982.304688 118.777344 L 1040.371094 112.972656 L 1049.328125 112.972656 L 1049.328125 150.445313 C 1071.511719 125.113281 1093.148438 112.972656 1116.898438 112.972656 C 1148.039063 112.972656 1180.230469 135.140625 1180.230469 180 "/>
</g>
<path style=" stroke:none;fill-rule:nonzero;fill:rgb(13.33313%,18.03894%,39.607239%);fill-opacity:1;" d="M 388.199219 358.761719 C 388.199219 367.136719 390.476563 373.542969 399.398438 373.542969 C 407.597656 373.542969 411.910156 368.039063 411.910156 358.453125 L 411.910156 341.816406 C 411.910156 340.558594 411.667969 339.542969 411.546875 338.578125 C 411.25 336.421875 409.214844 335.585938 406.398438 335.289063 L 406.398438 333.730469 L 420.53125 333.730469 L 420.53125 335.289063 C 417.652344 335.585938 415.679688 336.421875 415.382813 338.578125 C 415.261719 339.542969 415.023438 340.558594 415.023438 341.816406 L 415.023438 358.695313 C 415.023438 371.570313 406.816406 376.363281 399.101563 376.363281 C 386.34375 376.363281 382.390625 369.894531 382.390625 359.0625 L 382.390625 341.21875 C 382.390625 335.648438 382.628906 335.953125 377.238281 335.289063 L 377.238281 333.730469 L 393.347656 333.730469 L 393.347656 335.289063 C 387.957031 335.953125 388.199219 335.648438 388.199219 341.21875 "/>
<path style=" stroke:none;fill-rule:nonzero;fill:rgb(13.33313%,18.03894%,39.607239%);fill-opacity:1;" d="M 454.429688 375.640625 C 447.082031 366.960938 439.460938 357.855469 431.933594 348.988281 L 431.933594 369.410156 C 431.933594 370.375 432.117188 371.15625 432.207031 371.898438 C 432.441406 373.566406 434.011719 374.214844 437.058594 374.4375 L 437.058594 375.640625 L 425.738281 375.640625 L 425.738281 374.4375 C 427.960938 374.214844 429.480469 373.566406 429.714844 371.898438 C 429.804688 371.15625 429.988281 370.375 429.988281 369.410156 L 429.988281 347.640625 C 428.695313 345.984375 427.261719 344.507813 424.628906 344.507813 L 424.628906 343.296875 L 433.035156 343.296875 C 439.921875 351.660156 447.082031 360.167969 453.96875 368.527344 L 454.058594 368.527344 L 454.058594 349.539063 C 454.058594 348.570313 453.871094 347.785156 453.777344 347.046875 C 453.550781 345.378906 451.976563 344.734375 448.933594 344.507813 L 448.933594 343.296875 L 460.253906 343.296875 L 460.253906 344.507813 C 458.078125 344.734375 456.507813 345.378906 456.277344 347.046875 C 456.1875 347.785156 456 348.570313 456 349.539063 L 456 375.640625 "/>
<path style=" stroke:none;fill-rule:nonzero;fill:rgb(13.33313%,18.03894%,39.607239%);fill-opacity:1;" d="M 478.132813 369.859375 C 478.132813 374.15625 477.949219 373.929688 482.105469 374.4375 L 482.105469 375.640625 L 469.679688 375.640625 L 469.679688 374.4375 C 473.835938 373.929688 473.648438 374.15625 473.648438 369.859375 L 473.648438 349.078125 C 473.648438 344.777344 473.835938 345.015625 469.679688 344.503906 L 469.679688 343.300781 L 482.105469 343.300781 L 482.105469 344.503906 C 477.949219 345.015625 478.132813 344.777344 478.132813 349.078125 "/>
<path style=" stroke:none;fill-rule:nonzero;fill:rgb(13.33313%,18.03894%,39.607239%);fill-opacity:1;" d="M 501.785156 344.503906 C 499.246094 344.503906 497.394531 345.242188 498.917969 349.671875 C 500.722656 355.128906 503.402344 363.070313 505.804688 370.09375 C 508.761719 363.03125 511.582031 355.910156 514.441406 348.847656 C 515.601563 345.945313 514.398438 344.503906 511.25 344.503906 L 511.25 343.296875 L 521.234375 343.296875 L 521.234375 344.503906 C 519.894531 344.503906 518.367188 344.96875 517.402344 347.277344 C 513.519531 356.742188 509.597656 366.171875 505.714844 375.640625 L 503.355469 375.640625 C 500.539063 367.652344 497.394531 358.734375 494.578125 350.878906 C 492.875 345.945313 491.4375 344.503906 489.21875 344.503906 L 489.21875 343.296875 L 501.785156 343.296875 "/>
<path style=" stroke:none;fill-rule:nonzero;fill:rgb(13.33313%,18.03894%,39.607239%);fill-opacity:1;" d="M 528.347656 374.4375 C 532.507813 373.929688 532.324219 374.15625 532.324219 369.859375 L 532.324219 349.078125 C 532.324219 344.777344 532.507813 345.015625 528.347656 344.503906 L 528.347656 343.300781 L 549.003906 343.300781 L 549.003906 350.742188 L 547.800781 350.742188 C 547.339844 347.320313 546.414063 344.777344 543.089844 344.777344 L 536.804688 344.777344 L 536.804688 357.992188 L 540.6875 357.992188 C 543.597656 357.992188 544.84375 356.835938 544.933594 353.96875 L 546.132813 353.96875 L 546.132813 363.808594 L 544.933594 363.808594 C 544.84375 361.09375 543.777344 359.472656 540.6875 359.472656 L 536.804688 359.472656 L 536.804688 369.917969 C 536.804688 373.839844 538.609375 374.15625 542.765625 374.15625 C 549.460938 374.15625 549.144531 372.269531 551.265625 367.320313 L 552.464844 367.320313 L 551.074219 375.640625 L 528.347656 375.640625 "/>
<path style=" stroke:none;fill-rule:nonzero;fill:rgb(13.33313%,18.03894%,39.607239%);fill-opacity:1;" d="M 567.988281 359.84375 L 571.824219 359.84375 C 575.84375 359.84375 577.695313 356.796875 577.695313 351.574219 C 577.695313 346.535156 574.917969 344.777344 571.546875 344.777344 L 567.988281 344.777344 Z M 559.535156 343.296875 L 572.976563 343.296875 C 577.640625 343.296875 582.3125 345.757813 582.3125 351.152344 C 582.3125 355.917969 579.398438 359.199219 575.84375 360.585938 L 580.367188 367.46875 C 582.679688 370.835938 585.269531 374.070313 586.886719 375.042969 L 586.886719 375.640625 L 582.128906 375.640625 C 579.398438 375.640625 577.921875 370.605469 572.332031 361.3125 L 567.988281 361.3125 L 567.988281 369.867188 C 567.988281 374.15625 567.804688 373.929688 571.960938 374.4375 L 571.960938 375.640625 L 559.535156 375.640625 L 559.535156 374.4375 C 563.691406 373.929688 563.507813 374.15625 563.507813 369.867188 L 563.507813 349.078125 C 563.507813 344.777344 563.691406 345.015625 559.535156 344.507813 "/>
<path style=" stroke:none;fill-rule:nonzero;fill:rgb(13.33313%,18.03894%,39.607239%);fill-opacity:1;" d="M 609.757813 350.183594 C 609.382813 346.957031 607.628906 344.359375 603.933594 344.359375 C 601.25 344.359375 598.851563 345.757813 598.851563 349.167969 C 598.851563 352.398438 602.085938 354.351563 606.707031 357.8125 C 611.601563 361.460938 613.171875 363.808594 613.171875 367.652344 C 613.171875 373.144531 607.535156 376.195313 601.992188 376.195313 C 599.035156 376.195313 596.492188 375.640625 594.097656 374.722656 C 593.910156 374.628906 593.761719 374.4375 593.761719 374.070313 L 593.761719 367.421875 L 594.96875 367.421875 C 595.476563 372.539063 598.851563 374.578125 602.414063 374.578125 C 605.691406 374.578125 608.363281 372.085938 608.363281 368.714844 C 608.363281 365.707031 606.753906 363.257813 599.824219 358.683594 C 597.324219 357.015625 594.230469 355.214844 594.230469 350.183594 C 594.230469 346.027344 598.851563 342.753906 604.15625 342.753906 C 606.148438 342.753906 608.785156 342.980469 610.636719 343.613281 C 610.910156 343.71875 610.953125 343.898438 610.953125 344.132813 L 610.953125 350.183594 "/>
<path style=" stroke:none;fill-rule:nonzero;fill:rgb(13.33313%,18.03894%,39.607239%);fill-opacity:1;" d="M 629.945313 369.859375 C 629.945313 374.15625 629.761719 373.929688 633.917969 374.4375 L 633.917969 375.640625 L 621.488281 375.640625 L 621.488281 374.4375 C 625.648438 373.929688 625.460938 374.15625 625.460938 369.859375 L 625.460938 349.078125 C 625.460938 344.777344 625.648438 345.015625 621.488281 344.503906 L 621.488281 343.300781 L 633.917969 343.300781 L 633.917969 344.503906 C 629.761719 345.015625 629.945313 344.777344 629.945313 349.078125 "/>
<path style=" stroke:none;fill-rule:nonzero;fill:rgb(13.33313%,18.03894%,39.607239%);fill-opacity:1;" d="M 656.738281 369.859375 C 656.738281 374.15625 656.550781 373.929688 660.714844 374.4375 L 660.714844 375.640625 L 648.28125 375.640625 L 648.28125 374.4375 C 652.441406 373.929688 652.253906 374.15625 652.253906 369.859375 L 652.253906 344.777344 L 648.101563 344.777344 C 644.085938 344.777344 643.152344 347.320313 641.636719 350.371094 L 640.472656 350.371094 L 641.722656 343.300781 L 667.273438 343.300781 L 668.523438 350.371094 L 667.363281 350.371094 C 665.839844 347.320313 664.914063 344.777344 660.898438 344.777344 L 656.738281 344.777344 "/>
<path style=" stroke:none;fill-rule:nonzero;fill:rgb(13.33313%,18.03894%,39.607239%);fill-opacity:1;" d="M 681.964844 374.4375 C 686.117188 373.929688 685.9375 374.15625 685.9375 369.859375 L 685.9375 362.746094 L 678.820313 348.65625 C 677.296875 345.652344 676.003906 344.503906 673.882813 344.503906 L 673.882813 343.300781 L 685.65625 343.300781 L 685.65625 344.503906 C 682.152344 344.503906 682.472656 346.265625 683.617188 348.65625 L 689.21875 360.25 L 695.59375 348.65625 C 697.160156 345.839844 695.6875 344.503906 692.957031 344.503906 L 692.957031 343.300781 L 702.472656 343.300781 L 702.472656 344.503906 C 701.183594 344.503906 699.9375 345.105469 698.6875 347.320313 L 690.976563 361.316406 C 690.511719 362.242188 690.414063 363.535156 690.414063 364.695313 L 690.414063 369.859375 C 690.414063 374.15625 690.234375 373.929688 694.394531 374.4375 L 694.394531 375.640625 L 681.964844 375.640625 "/>
<path style=" stroke:none;fill-rule:nonzero;fill:rgb(13.33313%,18.03894%,39.607239%);fill-opacity:1;" d="M 744.46875 352.890625 C 744.46875 346.660156 740.695313 346.421875 739.742188 346.421875 C 733.273438 346.421875 729.019531 358.039063 729.019531 365.824219 C 729.019531 368.941406 729.566406 374.558594 733.996094 374.558594 C 740.820313 374.558594 744.46875 363.300781 744.46875 352.890625 Z M 723.515625 364.566406 C 723.515625 356.722656 730.277344 344.984375 740.277344 344.984375 C 748.25 344.984375 749.976563 350.378906 749.976563 355.757813 C 749.976563 362.355469 744.707031 376.363281 733.273438 376.363281 C 725.609375 376.363281 723.515625 370.1875 723.515625 364.566406 "/>
<g clip-path="url(#clip2)" clip-rule="nonzero">
<path style=" stroke:none;fill-rule:nonzero;fill:rgb(13.33313%,18.03894%,39.607239%);fill-opacity:1;" d="M 780.09375 346.96875 L 778.664063 348.226563 L 770.820313 348.226563 C 767.882813 362.46875 763.089844 381.453125 759.683594 390.550781 L 756.984375 390.550781 L 765.550781 348.226563 L 759.863281 348.226563 L 760.398438 345.710938 L 766.027344 345.710938 C 769.199219 332.949219 779.738281 331.636719 782.253906 331.636719 C 783.625 331.636719 786.5 331.878906 787.40625 332.714844 L 786.683594 336.660156 L 785.183594 337.382813 C 784.34375 335.761719 782.429688 333.90625 779.914063 333.90625 C 776.320313 333.90625 773.632813 336.363281 772.191406 342.832031 L 771.535156 345.710938 L 780.335938 345.710938 "/>
</g>
<path style=" stroke:none;fill-rule:nonzero;fill:rgb(13.33313%,18.03894%,39.607239%);fill-opacity:1;" d="M 816.625 368.160156 C 816.625 373.726563 816.378906 373.429688 821.769531 374.09375 L 821.769531 375.640625 L 805.660156 375.640625 L 805.660156 374.09375 C 811.054688 373.429688 810.8125 373.726563 810.8125 368.160156 L 810.8125 341.214844 C 810.8125 335.640625 811.054688 335.945313 805.660156 335.28125 L 805.660156 333.730469 L 821.347656 333.730469 C 831.289063 333.730469 836.191406 337.675781 836.191406 344.875 C 836.191406 353.484375 828.414063 358.15625 819.253906 357.613281 L 819.253906 356.417969 C 826.742188 356.539063 830.207031 352.050781 830.207031 345.464844 C 830.207031 338.757813 826.980469 335.640625 820.269531 335.640625 L 816.625 335.640625 "/>
<path style=" stroke:none;fill-rule:nonzero;fill:rgb(13.33313%,18.03894%,39.607239%);fill-opacity:1;" d="M 844.453125 374.4375 C 848.613281 373.929688 848.429688 374.15625 848.429688 369.859375 L 848.429688 349.078125 C 848.429688 344.777344 848.613281 345.015625 844.453125 344.503906 L 844.453125 343.300781 L 865.105469 343.300781 L 865.105469 350.742188 L 863.898438 350.742188 C 863.441406 347.320313 862.519531 344.777344 859.1875 344.777344 L 852.910156 344.777344 L 852.910156 357.992188 L 856.789063 357.992188 C 859.703125 357.992188 860.949219 356.835938 861.035156 353.96875 L 862.238281 353.96875 L 862.238281 363.808594 L 861.035156 363.808594 C 860.949219 361.09375 859.886719 359.472656 856.789063 359.472656 L 852.910156 359.472656 L 852.910156 369.917969 C 852.910156 373.839844 854.714844 374.15625 858.867188 374.15625 C 865.570313 374.15625 865.242188 372.269531 867.367188 367.320313 L 868.570313 367.320313 L 867.179688 375.640625 L 844.453125 375.640625 "/>
<path style=" stroke:none;fill-rule:nonzero;fill:rgb(13.33313%,18.03894%,39.607239%);fill-opacity:1;" d="M 905.25 375.640625 C 897.90625 366.960938 890.285156 357.855469 882.75 348.988281 L 882.75 369.410156 C 882.75 370.375 882.9375 371.15625 883.027344 371.898438 C 883.261719 373.566406 884.828125 374.214844 887.871094 374.4375 L 887.871094 375.640625 L 876.566406 375.640625 L 876.566406 374.4375 C 878.777344 374.214844 880.300781 373.566406 880.535156 371.898438 C 880.628906 371.15625 880.808594 370.375 880.808594 369.410156 L 880.808594 347.640625 C 879.515625 345.984375 878.09375 344.507813 875.449219 344.507813 L 875.449219 343.296875 L 883.855469 343.296875 C 890.746094 351.660156 897.90625 360.167969 904.785156 368.527344 L 904.882813 368.527344 L 904.882813 349.539063 C 904.882813 348.570313 904.695313 347.785156 904.605469 347.046875 C 904.378906 345.378906 902.808594 344.734375 899.753906 344.507813 L 899.753906 343.296875 L 911.066406 343.296875 L 911.066406 344.507813 C 908.90625 344.734375 907.328125 345.378906 907.109375 347.046875 C 907.007813 347.785156 906.820313 348.570313 906.820313 349.539063 L 906.820313 375.640625 "/>
<path style=" stroke:none;fill-rule:nonzero;fill:rgb(13.33313%,18.03894%,39.607239%);fill-opacity:1;" d="M 946.648438 375.640625 C 939.300781 366.960938 931.683594 357.855469 924.148438 348.988281 L 924.148438 369.410156 C 924.148438 370.375 924.335938 371.15625 924.421875 371.898438 C 924.660156 373.566406 926.230469 374.214844 929.277344 374.4375 L 929.277344 375.640625 L 917.957031 375.640625 L 917.957031 374.4375 C 920.167969 374.214844 921.691406 373.566406 921.929688 371.898438 C 922.03125 371.15625 922.203125 370.375 922.203125 369.410156 L 922.203125 347.640625 C 920.914063 345.984375 919.484375 344.507813 916.847656 344.507813 L 916.847656 343.296875 L 925.253906 343.296875 C 932.144531 351.660156 939.300781 360.167969 946.183594 368.527344 L 946.277344 368.527344 L 946.277344 349.539063 C 946.277344 348.570313 946.09375 347.785156 946.003906 347.046875 C 945.769531 345.378906 944.203125 344.734375 941.144531 344.507813 L 941.144531 343.296875 L 952.46875 343.296875 L 952.46875 344.507813 C 950.300781 344.734375 948.722656 345.378906 948.5 347.046875 C 948.402344 347.785156 948.214844 348.570313 948.214844 349.539063 L 948.214844 375.640625 "/>
<path style=" stroke:none;fill-rule:nonzero;fill:rgb(13.33313%,18.03894%,39.607239%);fill-opacity:1;" d="M 976.71875 350.183594 C 976.351563 346.957031 974.597656 344.359375 970.898438 344.359375 C 968.226563 344.359375 965.816406 345.757813 965.816406 349.167969 C 965.816406 352.398438 969.054688 354.351563 973.671875 357.8125 C 978.574219 361.460938 980.136719 363.808594 980.136719 367.652344 C 980.136719 373.144531 974.507813 376.195313 968.96875 376.195313 C 966.003906 376.195313 963.464844 375.640625 961.0625 374.722656 C 960.875 374.628906 960.734375 374.4375 960.734375 374.070313 L 960.734375 367.421875 L 961.9375 367.421875 C 962.445313 372.539063 965.816406 374.578125 969.375 374.578125 C 972.652344 374.578125 975.335938 372.085938 975.335938 368.714844 C 975.335938 365.707031 973.726563 363.257813 966.789063 358.683594 C 964.289063 357.015625 961.203125 355.214844 961.203125 350.183594 C 961.203125 346.027344 965.816406 342.753906 971.125 342.753906 C 973.113281 342.753906 975.753906 342.980469 977.601563 343.613281 C 977.878906 343.71875 977.925781 343.898438 977.925781 344.132813 L 977.925781 350.183594 "/>
<path style=" stroke:none;fill-rule:nonzero;fill:rgb(13.33313%,18.03894%,39.607239%);fill-opacity:1;" d="M 995.339844 374.4375 C 999.5 373.929688 999.3125 374.15625 999.3125 369.859375 L 999.3125 362.746094 L 992.203125 348.65625 C 990.679688 345.652344 989.386719 344.503906 987.257813 344.503906 L 987.257813 343.300781 L 999.039063 343.300781 L 999.039063 344.503906 C 995.523438 344.503906 995.847656 346.265625 997.007813 348.65625 L 1002.601563 360.25 L 1008.96875 348.65625 C 1010.53125 345.839844 1009.070313 344.503906 1006.328125 344.503906 L 1006.328125 343.300781 L 1015.859375 343.300781 L 1015.859375 344.503906 C 1014.550781 344.503906 1013.308594 345.105469 1012.070313 347.320313 L 1004.351563 361.316406 C 1003.890625 362.242188 1003.800781 363.535156 1003.800781 364.695313 L 1003.800781 369.859375 C 1003.800781 374.15625 1003.609375 373.929688 1007.761719 374.4375 L 1007.761719 375.640625 L 995.339844 375.640625 "/>
<path style=" stroke:none;fill-rule:nonzero;fill:rgb(13.33313%,18.03894%,39.607239%);fill-opacity:1;" d="M 1023.421875 374.4375 C 1027.589844 373.929688 1027.398438 374.15625 1027.398438 369.859375 L 1027.398438 349.078125 C 1027.398438 344.777344 1027.589844 345.015625 1023.421875 344.503906 L 1023.421875 343.300781 L 1035.859375 343.300781 L 1035.859375 344.503906 C 1031.691406 345.015625 1031.878906 344.777344 1031.878906 349.078125 L 1031.878906 370.601563 C 1031.878906 373.839844 1033.691406 374.15625 1037.800781 374.15625 C 1044.5 374.15625 1044.21875 372.269531 1046.339844 367.320313 L 1047.5 367.320313 L 1046.109375 375.640625 L 1023.421875 375.640625 "/>
<path style=" stroke:none;fill-rule:nonzero;fill:rgb(13.33313%,18.03894%,39.607239%);fill-opacity:1;" d="M 1063.621094 344.503906 C 1061.089844 344.503906 1059.230469 345.242188 1060.75 349.671875 C 1062.570313 355.128906 1065.238281 363.070313 1067.648438 370.09375 C 1070.601563 363.03125 1073.429688 355.910156 1076.28125 348.847656 C 1077.441406 345.945313 1076.238281 344.503906 1073.089844 344.503906 L 1073.089844 343.296875 L 1083.078125 343.296875 L 1083.078125 344.503906 C 1081.738281 344.503906 1080.210938 344.96875 1079.238281 347.277344 C 1075.351563 356.742188 1071.429688 366.171875 1067.550781 375.640625 L 1065.199219 375.640625 C 1062.378906 367.652344 1059.230469 358.734375 1056.410156 350.878906 C 1054.710938 345.945313 1053.28125 344.503906 1051.058594 344.503906 L 1051.058594 343.296875 L 1063.621094 343.296875 "/>
<path style=" stroke:none;fill-rule:nonzero;fill:rgb(13.33313%,18.03894%,39.607239%);fill-opacity:1;" d="M 1101.929688 363.167969 L 1097.03125 348.152344 L 1096.941406 348.152344 L 1091.441406 363.167969 Z M 1090.738281 364.921875 L 1088.621094 371.105469 C 1088.019531 372.910156 1088.898438 374.433594 1090.929688 374.433594 L 1090.929688 375.640625 L 1082.53125 375.640625 L 1082.53125 374.433594 C 1083.769531 374.433594 1085.109375 373.652344 1085.851563 372.128906 C 1087.839844 368.070313 1093.238281 352.957031 1097.070313 342.75 L 1099.671875 342.75 C 1102.800781 352.039063 1107.519531 366.265625 1109.089844 370.371094 C 1110.101563 372.96875 1110.839844 374.433594 1112.828125 374.433594 L 1112.828125 375.640625 L 1102.058594 375.640625 L 1102.058594 374.433594 C 1104.980469 374.433594 1105.25 372.910156 1104.511719 370.882813 L 1102.519531 364.921875 "/>
<path style=" stroke:none;fill-rule:nonzero;fill:rgb(13.33313%,18.03894%,39.607239%);fill-opacity:1;" d="M 1148.398438 375.640625 C 1141.050781 366.960938 1133.429688 357.855469 1125.910156 348.988281 L 1125.910156 369.410156 C 1125.910156 370.375 1126.078125 371.15625 1126.179688 371.898438 C 1126.410156 373.566406 1127.988281 374.214844 1131.03125 374.4375 L 1131.03125 375.640625 L 1119.710938 375.640625 L 1119.710938 374.4375 C 1121.929688 374.214844 1123.449219 373.566406 1123.691406 371.898438 C 1123.78125 371.15625 1123.960938 370.375 1123.960938 369.410156 L 1123.960938 347.640625 C 1122.671875 345.984375 1121.230469 344.507813 1118.601563 344.507813 L 1118.601563 343.296875 L 1127.011719 343.296875 C 1133.898438 351.660156 1141.050781 360.167969 1147.941406 368.527344 L 1148.03125 368.527344 L 1148.03125 349.539063 C 1148.03125 348.570313 1147.851563 347.785156 1147.761719 347.046875 C 1147.519531 345.378906 1145.949219 344.734375 1142.910156 344.507813 L 1142.910156 343.296875 L 1154.230469 343.296875 L 1154.230469 344.507813 C 1152.050781 344.734375 1150.46875 345.378906 1150.25 347.046875 C 1150.160156 347.785156 1149.96875 348.570313 1149.96875 349.539063 L 1149.96875 375.640625 "/>
<path style=" stroke:none;fill-rule:nonzero;fill:rgb(13.33313%,18.03894%,39.607239%);fill-opacity:1;" d="M 1170.25 369.859375 C 1170.25 374.15625 1170.070313 373.929688 1174.21875 374.4375 L 1174.21875 375.640625 L 1161.808594 375.640625 L 1161.808594 374.4375 C 1165.949219 373.929688 1165.78125 374.15625 1165.78125 369.859375 L 1165.78125 349.078125 C 1165.78125 344.777344 1165.949219 345.015625 1161.808594 344.503906 L 1161.808594 343.300781 L 1174.21875 343.300781 L 1174.21875 344.503906 C 1170.070313 345.015625 1170.25 344.777344 1170.25 349.078125 "/>
<g clip-path="url(#clip3)" clip-rule="nonzero">
<path style=" stroke:none;fill-rule:nonzero;fill:rgb(13.33313%,18.03894%,39.607239%);fill-opacity:1;" d="M 1200.738281 363.167969 L 1195.859375 348.152344 L 1195.75 348.152344 L 1190.261719 363.167969 Z M 1189.558594 364.921875 L 1187.441406 371.105469 C 1186.839844 372.910156 1187.71875 374.433594 1189.75 374.433594 L 1189.75 375.640625 L 1181.339844 375.640625 L 1181.339844 374.433594 C 1182.578125 374.433594 1183.921875 373.652344 1184.671875 372.128906 C 1186.648438 368.070313 1192.070313 352.957031 1195.890625 342.75 L 1198.480469 342.75 C 1201.628906 352.039063 1206.339844 366.265625 1207.910156 370.371094 C 1208.921875 372.96875 1209.660156 374.433594 1211.648438 374.433594 L 1211.648438 375.640625 L 1200.890625 375.640625 L 1200.890625 374.433594 C 1203.789063 374.433594 1204.070313 372.910156 1203.328125 370.882813 L 1201.351563 364.921875 "/>
</g>
<path style=" stroke:none;fill-rule:nonzero;fill:rgb(100%,100%,100%);fill-opacity:1;" d="M 2.832031 2.746094 L 334.269531 2.746094 C 334.269531 2.746094 334.269531 165.566406 334.269531 168.433594 C 332.019531 303.496094 180.671875 374.476563 161.632813 373.832031 C 141.832031 373.152344 2.382813 303.6875 2.796875 167.730469 C 2.804688 165.289063 2.832031 2.746094 2.832031 2.746094 "/>
<path style=" stroke:none;fill-rule:nonzero;fill:rgb(64.704895%,11.764526%,13.33313%);fill-opacity:1;" d="M 2.796875 103.4375 C 3.28125 103.914063 2.816406 2.773438 2.816406 2.773438 L 334.019531 2.773438 C 334.019531 2.773438 334.019531 57.019531 334.019531 103.441406 "/>
<path style="fill:none;stroke-width:4.79;stroke-linecap:butt;stroke-linejoin:miter;stroke:rgb(64.704895%,11.764526%,13.33313%);stroke-opacity:1;stroke-miterlimit:3.864;" d="M 27.96875 2871.125 C 32.8125 2866.359375 28.164063 3877.765625 28.164063 3877.765625 L 3340.195313 3877.765625 C 3340.195313 3877.765625 3340.195313 3335.304688 3340.195313 2871.085938 Z M 27.96875 2871.125 " transform="matrix(0.1,0,0,-0.1,0,390.55)"/>
<path style=" stroke:none;fill-rule:nonzero;fill:rgb(13.33313%,18.03894%,39.607239%);fill-opacity:1;" d="M 21.355469 250.8125 C 34.09375 277.589844 49.84375 299.152344 71.957031 317.492188 L 168.394531 219.988281 L 261.226563 315.207031 C 280.359375 297.707031 298.996094 276.519531 312.355469 251.421875 L 168.285156 112.820313 L 22.019531 251.097656 "/>
<path style="fill:none;stroke-width:4.79;stroke-linecap:butt;stroke-linejoin:miter;stroke:rgb(13.33313%,18.03894%,39.607239%);stroke-opacity:1;stroke-miterlimit:3.864;" d="M 213.554688 1397.375 C 340.9375 1129.601563 498.4375 913.976563 719.570313 730.578125 L 1683.945313 1705.617188 L 2612.265625 753.429688 C 2803.59375 928.429688 2989.960938 1140.304688 3123.554688 1391.28125 L 1682.851563 2777.296875 L 220.195313 1394.523438 Z M 213.554688 1397.375 " transform="matrix(0.1,0,0,-0.1,0,390.55)"/>
<path style="fill:none;stroke-width:4.79;stroke-linecap:butt;stroke-linejoin:miter;stroke:rgb(13.33313%,18.03894%,39.607239%);stroke-opacity:1;stroke-miterlimit:3.864;" d="M 27.96875 2864.25 L 3339.921875 2864.679688 " transform="matrix(0.1,0,0,-0.1,0,390.55)"/>
<path style=" stroke:none;fill-rule:nonzero;fill:rgb(100%,100%,100%);fill-opacity:1;" d="M 251.03125 27.789063 L 260.042969 27.789063 C 266.652344 26.277344 269.058594 22.449219 275.832031 22.449219 C 280.707031 22.449219 283.003906 25.683594 286.582031 25.683594 C 289.609375 25.683594 294.257813 22.234375 299.351563 22.234375 C 304.558594 22.234375 307.136719 25.363281 310.554688 26.816406 C 313.578125 28.113281 317.546875 28.042969 321.753906 28.042969 C 321.636719 31.0625 321.753906 32.863281 321.753906 35.390625 C 321.753906 37.980469 325.21875 36.960938 325.21875 41.167969 C 325.21875 45.589844 320.738281 44.726563 320.738281 46.507813 L 320.574219 62.957031 C 320.800781 65.007813 324.941406 65.28125 324.941406 68.398438 C 324.941406 73.039063 320.328125 71.4375 320.628906 75.09375 C 320.851563 77.785156 320.628906 83.507813 320.628906 83.507813 C 311.726563 83.507813 254.46875 84.03125 251.664063 83.921875 C 251.832031 77.832031 252.78125 78.191406 252.988281 75.257813 C 253.15625 72.882813 247.839844 71.425781 247.839844 67.433594 C 247.839844 64.683594 251.03125 64.847656 251.308594 62.253906 L 251.308594 45.859375 C 251.144531 43.703125 246.324219 42.621094 246.488281 39.546875 C 246.691406 35.867188 250.96875 36.339844 250.96875 33.882813 C 250.96875 32.808594 251.085938 28.808594 251.03125 27.789063 "/>
<path style="fill:none;stroke-width:4.79;stroke-linecap:butt;stroke-linejoin:miter;stroke:rgb(13.33313%,18.03894%,39.607239%);stroke-opacity:1;stroke-miterlimit:3.864;" d="M 2510.3125 3627.609375 L 2600.429688 3627.609375 C 2666.523438 3642.726563 2690.585938 3681.007813 2758.320313 3681.007813 C 2807.070313 3681.007813 2830.039063 3648.664063 2865.820313 3648.664063 C 2896.09375 3648.664063 2942.578125 3683.15625 2993.515625 3683.15625 C 3045.585938 3683.15625 3071.367188 3651.867188 3105.546875 3637.335938 C 3135.78125 3624.367188 3175.46875 3625.070313 3217.539063 3625.070313 C 3216.367188 3594.875 3217.539063 3576.867188 3217.539063 3551.59375 C 3217.539063 3525.695313 3252.1875 3535.890625 3252.1875 3493.820313 C 3252.1875 3449.601563 3207.382813 3458.234375 3207.382813 3440.421875 L 3205.742188 3275.929688 C 3208.007813 3255.421875 3249.414063 3252.6875 3249.414063 3221.515625 C 3249.414063 3175.109375 3203.28125 3191.125 3206.289063 3154.5625 C 3208.515625 3127.648438 3206.289063 3070.421875 3206.289063 3070.421875 C 3117.265625 3070.421875 2544.6875 3065.1875 2516.640625 3066.28125 C 2518.320313 3127.179688 2527.8125 3123.585938 2529.882813 3152.921875 C 2531.5625 3176.671875 2478.398438 3191.242188 2478.398438 3231.164063 C 2478.398438 3258.664063 2510.3125 3257.023438 2513.085938 3282.960938 L 2513.085938 3446.90625 C 2511.445313 3468.46875 2463.242188 3479.289063 2464.882813 3510.03125 C 2466.914063 3546.828125 2509.6875 3542.101563 2509.6875 3566.671875 C 2509.6875 3577.414063 2510.859375 3617.414063 2510.3125 3627.609375 Z M 2510.3125 3627.609375 " transform="matrix(0.1,0,0,-0.1,0,390.55)"/>
<path style="fill:none;stroke-width:4.79;stroke-linecap:butt;stroke-linejoin:miter;stroke:rgb(13.33313%,18.03894%,39.607239%);stroke-opacity:1;stroke-miterlimit:3.864;" d="M 2583.632813 3624.875 C 2583.632813 3624.875 2584.804688 3258.117188 2583.632813 3171.828125 C 2583.632813 3171.828125 3117.851563 3170.734375 3141.328125 3172.882813 C 3141.328125 3270.578125 3140.820313 3627.648438 3140.820313 3627.648438 " transform="matrix(0.1,0,0,-0.1,0,390.55)"/>
<path style="fill:none;stroke-width:4.79;stroke-linecap:butt;stroke-linejoin:miter;stroke:rgb(13.33313%,18.03894%,39.607239%);stroke-opacity:1;stroke-miterlimit:3.864;" d="M 2863.085938 3647.570313 L 2863.085938 3170.773438 " transform="matrix(0.1,0,0,-0.1,0,390.55)"/>
<path style=" stroke:none;fill-rule:nonzero;fill:rgb(13.33313%,18.03894%,39.607239%);fill-opacity:1;" d="M 287.148438 67.59375 C 289.5 67.703125 293.816406 69.292969 298.011719 70.558594 C 303.4375 72.210938 309.199219 71.054688 313.464844 71.910156 C 314.804688 72.179688 287.148438 72.394531 287.148438 72.394531 C 287.257813 67.054688 287.148438 67.59375 287.148438 67.59375 "/>
<path style="fill:none;stroke-width:4.79;stroke-linecap:butt;stroke-linejoin:miter;stroke:rgb(13.33313%,18.03894%,39.607239%);stroke-opacity:1;stroke-miterlimit:3.864;" d="M 2871.484375 3229.5625 C 2895 3228.46875 2938.164063 3212.570313 2980.117188 3199.914063 C 3034.375 3183.390625 3091.992188 3194.953125 3134.648438 3186.398438 C 3148.046875 3183.703125 2871.484375 3181.554688 2871.484375 3181.554688 C 2872.578125 3234.953125 2871.484375 3229.5625 2871.484375 3229.5625 Z M 2871.484375 3229.5625 " transform="matrix(0.1,0,0,-0.1,0,390.55)"/>
<path style=" stroke:none;fill-rule:nonzero;fill:rgb(13.33313%,18.03894%,39.607239%);fill-opacity:1;" d="M 283.171875 74.660156 C 283.171875 73.46875 284.5625 72.503906 286.277344 72.503906 C 287.996094 72.503906 289.386719 73.46875 289.386719 74.660156 C 289.386719 75.855469 287.996094 76.820313 286.277344 76.820313 C 284.5625 76.820313 283.171875 75.855469 283.171875 74.660156 "/>
<path style="fill:none;stroke-width:4.79;stroke-linecap:butt;stroke-linejoin:miter;stroke:rgb(13.33313%,18.03894%,39.607239%);stroke-opacity:1;stroke-miterlimit:3.864;" d="M 2831.71875 3158.898438 C 2831.71875 3170.8125 2845.625 3180.460938 2862.773438 3180.460938 C 2879.960938 3180.460938 2893.867188 3170.8125 2893.867188 3158.898438 C 2893.867188 3146.945313 2879.960938 3137.296875 2862.773438 3137.296875 C 2845.625 3137.296875 2831.71875 3146.945313 2831.71875 3158.898438 Z M 2831.71875 3158.898438 " transform="matrix(0.1,0,0,-0.1,0,390.55)"/>
<path style=" stroke:none;fill-rule:nonzero;fill:rgb(13.33313%,18.03894%,39.607239%);fill-opacity:1;" d="M 284.753906 67.59375 C 282.402344 67.703125 278.085938 69.292969 273.890625 70.558594 C 268.457031 72.210938 262.699219 71.054688 258.4375 71.910156 C 257.097656 72.179688 284.753906 72.394531 284.753906 72.394531 C 284.644531 67.054688 284.753906 67.59375 284.753906 67.59375 "/>
<path style="fill:none;stroke-width:4.79;stroke-linecap:butt;stroke-linejoin:miter;stroke:rgb(13.33313%,18.03894%,39.607239%);stroke-opacity:1;stroke-miterlimit:3.864;" d="M 2847.539063 3229.5625 C 2824.023438 3228.46875 2780.859375 3212.570313 2738.90625 3199.914063 C 2684.570313 3183.390625 2626.992188 3194.953125 2584.375 3186.398438 C 2570.976563 3183.703125 2847.539063 3181.554688 2847.539063 3181.554688 C 2846.445313 3234.953125 2847.539063 3229.5625 2847.539063 3229.5625 Z M 2847.539063 3229.5625 " transform="matrix(0.1,0,0,-0.1,0,390.55)"/>
<path style=" stroke:none;fill-rule:nonzero;fill:rgb(100%,100%,100%);fill-opacity:1;" d="M 101.222656 88.304688 C 102.113281 91.8125 104.746094 94.128906 109.058594 94.128906 C 117.066406 94.128906 124.792969 88.191406 129.4375 84.855469 C 133.078125 82.261719 136.832031 79.511719 136.832031 73.851563 L 136.160156 76.003906 C 136.160156 76.003906 142.433594 69.753906 157.886719 74.710938 C 162.179688 76.085938 180.566406 86.414063 184.539063 88.089844 C 187.960938 89.542969 199.929688 98.132813 218.640625 94.820313 C 218.640625 94.820313 247.210938 90.894531 240.828125 61.472656 C 236.269531 40.441406 237.683594 38.953125 239.421875 32.210938 C 238.746094 31.886719 221.949219 28.109375 222.394531 51.410156 C 215.113281 52.164063 205.816406 57.664063 211.867188 72.121094 C 214.328125 68.457031 217.632813 64.570313 222.171875 64.570313 C 225.023438 64.570313 228.035156 68.675781 228.21875 71.691406 C 228.664063 79.027344 221.277344 82.261719 212.09375 80.753906 C 207.433594 79.988281 203.152344 74.828125 196.734375 70.183594 C 197.855469 69.648438 198.875 65.863281 198.875 64.355469 C 198.875 60.632813 195.6875 58.910156 193.503906 57.664063 C 193.953125 56.371094 194.839844 54.648438 194.839844 53.351563 C 194.839844 50.386719 190.640625 50.601563 189.019531 49.46875 C 189.691406 48.550781 189.691406 49.09375 189.691406 47.746094 C 189.691406 43.425781 190.367188 41.050781 181.628906 41.273438 C 182.359375 37.007813 181.460938 34.257813 178.492188 33.070313 L 171.996094 32.210938 C 167.964844 31.453125 171.988281 30.113281 168.265625 26.527344 C 164.949219 23.328125 159.484375 26.527344 159.484375 26.527344 C 159.484375 23.5625 157.4375 21.207031 153.851563 21.207031 C 151.949219 21.207031 149.601563 21.363281 148.257813 22.066406 L 145.570313 24.226563 C 142.207031 24.226563 141.367188 21.207031 137.507813 21.207031 C 133.640625 21.207031 132.074219 24.226563 130.5625 26.167969 C 127.933594 24.925781 127.597656 22.714844 124.066406 22.714844 C 122 22.714844 121.382813 24.925781 120.484375 25.953125 C 118.1875 28.484375 118.351563 31.113281 114.765625 32.410156 L 113.433594 30.066406 C 113.394531 29.917969 113.347656 29.765625 113.316406 29.621094 C 108.050781 32.15625 96.175781 59.230469 96.175781 64.785156 C 96.175781 70.074219 100.773438 67.753906 100.773438 73.414063 C 100.773438 76.761719 95.84375 79.191406 95.84375 82.046875 C 95.84375 85.664063 100.042969 87.4375 103.6875 87.4375 "/>
<path style="fill:none;stroke-width:4.79;stroke-linecap:butt;stroke-linejoin:miter;stroke:rgb(13.33313%,18.03894%,39.607239%);stroke-opacity:1;stroke-miterlimit:3.864;" d="M 1012.226563 3022.453125 C 1021.132813 2987.375 1047.460938 2964.210938 1090.585938 2964.210938 C 1170.664063 2964.210938 1247.929688 3023.585938 1294.375 3056.945313 C 1330.78125 3082.882813 1368.320313 3110.382813 1368.320313 3166.984375 L 1361.601563 3145.460938 C 1361.601563 3145.460938 1424.335938 3207.960938 1578.867188 3158.390625 C 1621.796875 3144.640625 1805.664063 3041.359375 1845.390625 3024.601563 C 1879.609375 3010.070313 1999.296875 2924.171875 2186.40625 2957.296875 C 2186.40625 2957.296875 2472.109375 2996.554688 2408.28125 3290.773438 C 2362.695313 3501.085938 2376.835938 3515.96875 2394.21875 3583.390625 C 2387.460938 3586.632813 2219.492188 3624.40625 2223.945313 3391.398438 C 2151.132813 3383.859375 2058.164063 3328.859375 2118.671875 3184.289063 C 2143.28125 3220.929688 2176.328125 3259.796875 2221.71875 3259.796875 C 2250.234375 3259.796875 2280.351563 3218.742188 2282.1875 3188.585938 C 2286.640625 3115.226563 2212.773438 3082.882813 2120.9375 3097.960938 C 2074.335938 3105.617188 2031.523438 3157.21875 1967.34375 3203.664063 C 1978.554688 3209.015625 1988.75 3246.867188 1988.75 3261.945313 C 1988.75 3299.171875 1956.875 3316.398438 1935.039063 3328.859375 C 1939.53125 3341.789063 1948.398438 3359.015625 1948.398438 3371.984375 C 1948.398438 3401.632813 1906.40625 3399.484375 1890.195313 3410.8125 C 1896.914063 3419.992188 1896.914063 3414.5625 1896.914063 3428.039063 C 1896.914063 3471.242188 1903.671875 3494.992188 1816.289063 3492.765625 C 1823.59375 3535.421875 1814.609375 3562.921875 1784.921875 3574.796875 L 1719.960938 3583.390625 C 1679.648438 3590.96875 1719.882813 3604.367188 1682.65625 3640.226563 C 1649.492188 3672.21875 1594.84375 3640.226563 1594.84375 3640.226563 C 1594.84375 3669.875 1574.375 3693.429688 1538.515625 3693.429688 C 1519.492188 3693.429688 1496.015625 3691.867188 1482.578125 3684.835938 L 1455.703125 3663.234375 C 1422.070313 3663.234375 1413.671875 3693.429688 1375.078125 3693.429688 C 1336.40625 3693.429688 1320.742188 3663.234375 1305.625 3643.820313 C 1279.335938 3656.242188 1275.976563 3678.351563 1240.664063 3678.351563 C 1220 3678.351563 1213.828125 3656.242188 1204.84375 3645.96875 C 1181.875 3620.65625 1183.515625 3594.367188 1147.65625 3581.398438 L 1134.335938 3604.835938 C 1133.945313 3606.320313 1133.476563 3607.84375 1133.164063 3609.289063 C 1080.507813 3583.9375 961.757813 3313.195313 961.757813 3257.648438 C 961.757813 3204.757813 1007.734375 3227.960938 1007.734375 3171.359375 C 1007.734375 3137.882813 958.4375 3113.585938 958.4375 3085.03125 C 958.4375 3048.859375 1000.429688 3031.125 1036.875 3031.125 Z M 1012.226563 3022.453125 " transform="matrix(0.1,0,0,-0.1,0,390.55)"/>
<path style=" stroke:none;fill-rule:nonzero;fill:rgb(13.33313%,18.03894%,39.607239%);fill-opacity:1;" d="M 113.59375 65.558594 C 113.59375 65.558594 119.421875 67.800781 119.421875 69.011719 C 119.421875 70.648438 115.65625 72.457031 113.148438 74.617188 L 110.011719 74.617188 C 111.132813 70.949219 110.011719 72.285156 110.011719 69.011719 C 110.011719 66.546875 112.609375 65.558594 113.59375 65.558594 "/>
<path style="fill:none;stroke-width:4.79;stroke-linecap:butt;stroke-linejoin:miter;stroke:rgb(13.33313%,18.03894%,39.607239%);stroke-opacity:1;stroke-miterlimit:3.864;" d="M 1135.9375 3249.914063 C 1135.9375 3249.914063 1194.21875 3227.492188 1194.21875 3215.382813 C 1194.21875 3199.015625 1156.5625 3180.929688 1131.484375 3159.328125 L 1100.117188 3159.328125 C 1111.328125 3196.007813 1100.117188 3182.648438 1100.117188 3215.382813 C 1100.117188 3240.03125 1126.09375 3249.914063 1135.9375 3249.914063 Z M 1135.9375 3249.914063 " transform="matrix(0.1,0,0,-0.1,0,390.55)"/>
<path style="fill:none;stroke-width:4.79;stroke-linecap:butt;stroke-linejoin:miter;stroke:rgb(13.33313%,18.03894%,39.607239%);stroke-opacity:1;stroke-miterlimit:3.864;" d="M 1348.75 3349.25 C 1378.984375 3363.78125 1364.960938 3400.96875 1413.671875 3400.96875 C 1456.796875 3400.96875 1473.046875 3370.8125 1512.226563 3370.8125 C 1538.515625 3370.8125 1557.03125 3396.671875 1592.851563 3396.671875 C 1624.765625 3396.671875 1666.757813 3353.546875 1660.078125 3301.75 C 1660.078125 3301.75 1772.070313 3338.429688 1767.539063 3217.609375 C 1857.148438 3247.84375 1848.203125 3173.9375 1857.148438 3137.804688 C 1866.132813 3103.273438 1924.375 3131.320313 1915.390625 3057.960938 " transform="matrix(0.1,0,0,-0.1,0,390.55)"/>
<path style=" stroke:none;fill-rule:nonzero;fill:rgb(100%,100%,100%);fill-opacity:1;" d="M 15.335938 28.082031 L 24.347656 28.082031 C 30.957031 26.570313 33.363281 22.738281 40.140625 22.738281 C 45.011719 22.738281 47.308594 25.972656 50.890625 25.972656 C 53.914063 25.972656 58.566406 22.527344 63.65625 22.527344 C 68.863281 22.527344 71.441406 25.652344 74.855469 27.109375 C 77.882813 28.402344 81.855469 28.335938 86.058594 28.335938 C 85.945313 31.355469 86.058594 33.148438 86.058594 35.6875 C 86.058594 38.273438 89.523438 37.25 89.523438 41.453125 C 89.523438 45.878906 85.050781 45.015625 85.050781 46.796875 L 84.882813 63.25 C 85.101563 65.296875 89.246094 65.5625 89.246094 68.691406 C 89.246094 73.332031 84.628906 71.730469 84.933594 75.378906 C 85.160156 78.078125 84.933594 83.796875 84.933594 83.796875 C 76.03125 83.796875 19.980469 83.855469 17.183594 83.742188 C 17.351563 77.648438 17.089844 78.484375 17.292969 75.542969 C 17.460938 73.167969 12.140625 71.714844 12.140625 67.722656 C 12.140625 64.972656 15.335938 65.132813 15.613281 62.550781 L 15.613281 46.148438 C 15.445313 43.988281 10.628906 42.910156 10.800781 39.835938 C 10.996094 36.160156 15.277344 36.628906 15.277344 34.175781 C 15.277344 33.097656 15.390625 29.101563 15.335938 28.082031 "/>
<path style="fill:none;stroke-width:4.79;stroke-linecap:butt;stroke-linejoin:miter;stroke:rgb(13.33313%,18.03894%,39.607239%);stroke-opacity:1;stroke-miterlimit:3.864;" d="M 153.359375 3624.679688 L 243.476563 3624.679688 C 309.570313 3639.796875 333.632813 3678.117188 401.40625 3678.117188 C 450.117188 3678.117188 473.085938 3645.773438 508.90625 3645.773438 C 539.140625 3645.773438 585.664063 3680.226563 636.5625 3680.226563 C 688.632813 3680.226563 714.414063 3648.976563 748.554688 3634.40625 C 778.828125 3621.476563 818.554688 3622.140625 860.585938 3622.140625 C 859.453125 3591.945313 860.585938 3574.015625 860.585938 3548.625 C 860.585938 3522.765625 895.234375 3533 895.234375 3490.96875 C 895.234375 3446.710938 850.507813 3455.34375 850.507813 3437.53125 L 848.828125 3273 C 851.015625 3252.53125 892.460938 3249.875 892.460938 3218.585938 C 892.460938 3172.179688 846.289063 3188.195313 849.335938 3151.710938 C 851.601563 3124.71875 849.335938 3067.53125 849.335938 3067.53125 C 760.3125 3067.53125 199.804688 3066.945313 171.835938 3068.078125 C 173.515625 3129.015625 170.898438 3120.65625 172.929688 3150.070313 C 174.609375 3173.820313 121.40625 3188.351563 121.40625 3228.273438 C 121.40625 3255.773438 153.359375 3254.171875 156.132813 3279.992188 L 156.132813 3444.015625 C 154.453125 3465.617188 106.289063 3476.398438 108.007813 3507.140625 C 109.960938 3543.898438 152.773438 3539.210938 152.773438 3563.742188 C 152.773438 3574.523438 153.90625 3614.484375 153.359375 3624.679688 Z M 153.359375 3624.679688 " transform="matrix(0.1,0,0,-0.1,0,390.55)"/>
<path style="fill:none;stroke-width:4.79;stroke-linecap:butt;stroke-linejoin:miter;stroke:rgb(13.33313%,18.03894%,39.607239%);stroke-opacity:1;stroke-miterlimit:3.864;" d="M 226.679688 3622.023438 C 226.679688 3622.023438 227.773438 3255.226563 226.679688 3168.976563 C 226.679688 3168.976563 760.859375 3167.84375 784.414063 3169.992188 C 784.414063 3267.6875 783.828125 3624.679688 783.828125 3624.679688 " transform="matrix(0.1,0,0,-0.1,0,390.55)"/>
<path style="fill:none;stroke-width:4.79;stroke-linecap:butt;stroke-linejoin:miter;stroke:rgb(13.33313%,18.03894%,39.607239%);stroke-opacity:1;stroke-miterlimit:3.864;" d="M 506.09375 3644.679688 L 506.09375 3167.882813 " transform="matrix(0.1,0,0,-0.1,0,390.55)"/>
<path style=" stroke:none;fill-rule:nonzero;fill:rgb(13.33313%,18.03894%,39.607239%);fill-opacity:1;" d="M 51.449219 67.882813 C 53.800781 67.992188 58.121094 69.582031 62.316406 70.855469 C 67.746094 72.496094 73.503906 71.34375 77.765625 72.199219 C 79.109375 72.46875 51.449219 72.683594 51.449219 72.683594 C 51.558594 67.347656 51.449219 67.882813 51.449219 67.882813 "/>
<path style="fill:none;stroke-width:4.79;stroke-linecap:butt;stroke-linejoin:miter;stroke:rgb(13.33313%,18.03894%,39.607239%);stroke-opacity:1;stroke-miterlimit:3.864;" d="M 514.492188 3226.671875 C 538.007813 3225.578125 581.210938 3209.679688 623.164063 3196.945313 C 677.460938 3180.539063 735.039063 3192.0625 777.65625 3183.507813 C 791.09375 3180.8125 514.492188 3178.664063 514.492188 3178.664063 C 515.585938 3232.023438 514.492188 3226.671875 514.492188 3226.671875 Z M 514.492188 3226.671875 " transform="matrix(0.1,0,0,-0.1,0,390.55)"/>
<path style=" stroke:none;fill-rule:nonzero;fill:rgb(13.33313%,18.03894%,39.607239%);fill-opacity:1;" d="M 47.472656 74.953125 C 47.472656 73.761719 48.863281 72.792969 50.582031 72.792969 C 52.300781 72.792969 53.691406 73.761719 53.691406 74.953125 C 53.691406 76.144531 52.300781 77.105469 50.582031 77.105469 C 48.863281 77.105469 47.472656 76.144531 47.472656 74.953125 "/>
<path style="fill:none;stroke-width:4.79;stroke-linecap:butt;stroke-linejoin:miter;stroke:rgb(13.33313%,18.03894%,39.607239%);stroke-opacity:1;stroke-miterlimit:3.864;" d="M 474.726563 3155.96875 C 474.726563 3167.882813 488.632813 3177.570313 505.820313 3177.570313 C 523.007813 3177.570313 536.914063 3167.882813 536.914063 3155.96875 C 536.914063 3144.054688 523.007813 3134.445313 505.820313 3134.445313 C 488.632813 3134.445313 474.726563 3144.054688 474.726563 3155.96875 Z M 474.726563 3155.96875 " transform="matrix(0.1,0,0,-0.1,0,390.55)"/>
<path style=" stroke:none;fill-rule:nonzero;fill:rgb(13.33313%,18.03894%,39.607239%);fill-opacity:1;" d="M 49.058594 67.882813 C 46.710938 67.992188 42.390625 69.582031 38.195313 70.855469 C 32.761719 72.496094 27.007813 71.34375 22.742188 72.199219 C 21.398438 72.46875 49.058594 72.683594 49.058594 72.683594 C 48.949219 67.347656 49.058594 67.882813 49.058594 67.882813 "/>
<path style="fill:none;stroke-width:4.79;stroke-linecap:butt;stroke-linejoin:miter;stroke:rgb(13.33313%,18.03894%,39.607239%);stroke-opacity:1;stroke-miterlimit:3.864;" d="M 490.585938 3226.671875 C 467.109375 3225.578125 423.90625 3209.679688 381.953125 3196.945313 C 327.617188 3180.539063 270.078125 3192.0625 227.421875 3183.507813 C 213.984375 3180.8125 490.585938 3178.664063 490.585938 3178.664063 C 489.492188 3232.023438 490.585938 3226.671875 490.585938 3226.671875 Z M 490.585938 3226.671875 " transform="matrix(0.1,0,0,-0.1,0,390.55)"/>
<path style=" stroke:none;fill-rule:nonzero;fill:rgb(100%,100%,100%);fill-opacity:1;" d="M 59.742188 239.777344 C 59.742188 224.390625 72.6875 211.917969 88.65625 211.917969 C 104.628906 211.917969 117.574219 224.390625 117.574219 239.777344 C 117.574219 255.160156 104.628906 267.625 88.65625 267.625 C 72.6875 267.625 59.742188 255.160156 59.742188 239.777344 "/>
<path style="fill:none;stroke-width:4.79;stroke-linecap:butt;stroke-linejoin:miter;stroke:rgb(13.33313%,18.03894%,39.607239%);stroke-opacity:1;stroke-miterlimit:3.864;" d="M 597.421875 1507.726563 C 597.421875 1661.59375 726.875 1786.320313 886.5625 1786.320313 C 1046.289063 1786.320313 1175.742188 1661.59375 1175.742188 1507.726563 C 1175.742188 1353.898438 1046.289063 1229.25 886.5625 1229.25 C 726.875 1229.25 597.421875 1353.898438 597.421875 1507.726563 Z M 597.421875 1507.726563 " transform="matrix(0.1,0,0,-0.1,0,390.55)"/>
<path style=" stroke:none;fill-rule:nonzero;fill:rgb(100%,100%,100%);fill-opacity:1;" d="M 139.242188 172.871094 C 139.242188 157.492188 152.1875 145.019531 168.15625 145.019531 C 184.128906 145.019531 197.070313 157.492188 197.070313 172.871094 C 197.070313 188.257813 184.128906 200.71875 168.15625 200.71875 C 152.1875 200.71875 139.242188 188.257813 139.242188 172.871094 "/>
<path style="fill:none;stroke-width:4.79;stroke-linecap:butt;stroke-linejoin:miter;stroke:rgb(13.33313%,18.03894%,39.607239%);stroke-opacity:1;stroke-miterlimit:3.864;" d="M 1392.421875 2176.789063 C 1392.421875 2330.578125 1521.875 2455.304688 1681.5625 2455.304688 C 1841.289063 2455.304688 1970.703125 2330.578125 1970.703125 2176.789063 C 1970.703125 2022.921875 1841.289063 1898.3125 1681.5625 1898.3125 C 1521.875 1898.3125 1392.421875 2022.921875 1392.421875 2176.789063 Z M 1392.421875 2176.789063 " transform="matrix(0.1,0,0,-0.1,0,390.55)"/>
<path style=" stroke:none;fill-rule:nonzero;fill:rgb(100%,100%,100%);fill-opacity:1;" d="M 214.246094 239.777344 C 214.246094 224.390625 227.191406 211.917969 243.164063 211.917969 C 259.132813 211.917969 272.082031 224.390625 272.082031 239.777344 C 272.082031 255.160156 259.132813 267.625 243.164063 267.625 C 227.191406 267.625 214.246094 255.160156 214.246094 239.777344 "/>
<path style="fill:none;stroke-width:4.79;stroke-linecap:butt;stroke-linejoin:miter;stroke:rgb(13.33313%,18.03894%,39.607239%);stroke-opacity:1;stroke-miterlimit:3.864;" d="M 2142.460938 1507.726563 C 2142.460938 1661.59375 2271.914063 1786.320313 2431.640625 1786.320313 C 2591.328125 1786.320313 2720.820313 1661.59375 2720.820313 1507.726563 C 2720.820313 1353.898438 2591.328125 1229.25 2431.640625 1229.25 C 2271.914063 1229.25 2142.460938 1353.898438 2142.460938 1507.726563 Z M 2142.460938 1507.726563 " transform="matrix(0.1,0,0,-0.1,0,390.55)"/>
<path style="fill:none;stroke-width:4.79;stroke-linecap:butt;stroke-linejoin:miter;stroke:rgb(13.33313%,18.03894%,39.607239%);stroke-opacity:1;stroke-miterlimit:3.864;" d="M 1971.601563 3215.109375 C 1897.734375 3296.4375 1832.539063 3391.90625 1821.289063 3396.671875 C 1784.960938 3411.828125 1698.125 3584.40625 1465.15625 3597.375 C 1406.054688 3600.617188 1183.28125 3578.976563 1175.664063 3521.984375 " transform="matrix(0.1,0,0,-0.1,0,390.55)"/>
<path style="fill:none;stroke-width:4.79;stroke-linecap:butt;stroke-linejoin:miter;stroke:rgb(13.33313%,18.03894%,39.607239%);stroke-opacity:1;stroke-miterlimit:3.864;" d="M 1369.804688 3152.375 C 1370.625 3157.960938 1371.132813 3163.898438 1371.132813 3170.148438 C 1371.132813 3179.40625 1316.523438 3174.171875 1303.554688 3178.039063 C 1294.609375 3180.734375 1327.578125 3193.859375 1321.875 3193.859375 C 1355.429688 3206.867188 1441.523438 3244.71875 1411.445313 3273.742188 C 1382.34375 3301.789063 1364.960938 3331.398438 1348.75 3349.25 C 1326.914063 3372.960938 1301.09375 3385.890625 1261.367188 3385.890625 C 1227.226563 3385.890625 1171.875 3326.671875 1148.90625 3310.460938 C 1165.664063 3326.671875 1214.335938 3368.625 1214.335938 3403.195313 C 1214.335938 3480.8125 1152.1875 3548.273438 1135.9375 3612.453125 " transform="matrix(0.1,0,0,-0.1,0,390.55)"/>
<path style="fill:none;stroke-width:4.79;stroke-linecap:butt;stroke-linejoin:miter;stroke:rgb(13.33313%,18.03894%,39.607239%);stroke-opacity:1;stroke-miterlimit:3.864;" d="M 1034.921875 3034.289063 C 1096.523438 3034.289063 1131.210938 3038.546875 1160.351563 3053.664063 C 1192.265625 3070.382813 1249.960938 3106.515625 1263.398438 3137.804688 " transform="matrix(0.1,0,0,-0.1,0,390.55)"/>
<path style="fill:none;stroke-width:9.5;stroke-linecap:butt;stroke-linejoin:miter;stroke:rgb(13.33313%,18.03894%,39.607239%);stroke-opacity:1;stroke-miterlimit:3.864;" d="M 27.226563 3877.804688 L 3341.5625 3877.804688 C 3341.5625 3877.804688 3341.5625 2249.5625 3341.5625 2220.851563 C 3319.101563 870.34375 1805.664063 160.460938 1615.273438 166.945313 C 1417.265625 173.703125 22.773438 868.390625 26.914063 2227.84375 C 26.953125 2252.375 27.226563 3877.804688 27.226563 3877.804688 Z M 27.226563 3877.804688 " transform="matrix(0.1,0,0,-0.1,0,390.55)"/>
</g>
</svg>
